<svg viewBox="0 0 20 20" xmlns="http://www.w3.org/2000/svg">
<path fill-rule="evenodd" clip-rule="evenodd" d="M7.11721 2.37794C6.39647 2.91137 6 3.60823 6 4.33333V5.5H14V4.33333C14 3.61002 13.6046 2.91311 12.8846 2.37926C12.1647 1.84558 11.1466 1.5 10 1.5C8.85607 1.5 7.83782 1.84462 7.11721 2.37794ZM15 5.5V4.33333C15 3.21915 14.3885 2.24939 13.4801 1.57595C12.5715 0.902335 11.3396 0.5 10 0.5C8.66331 0.5 7.43156 0.901212 6.52232 1.57414C5.61322 2.24696 5 3.21677 5 4.33333V5.5H0.5V19.8333H19.5V5.5H15ZM14 6.5V7.66667C14 7.94281 14.2239 8.16667 14.5 8.16667C14.7761 8.16667 15 7.94281 15 7.66667V6.5H18.5V18.8333H1.5V6.5H5V7.66667C5 7.94281 5.22386 8.16667 5.5 8.16667C5.77614 8.16667 6 7.94281 6 7.66667V6.5H14Z"/>
</svg>
