<svg viewBox="0 0 21 21" xmlns="http://www.w3.org/2000/svg">
<path fill-rule="evenodd" clip-rule="evenodd" d="M7.73093 2.82051C7.0579 3.30956 6.75 3.89974 6.75 4.45455V5.18182H14.25V4.45455C14.25 3.90131 13.943 3.31104 13.2706 2.82165C12.5996 2.33319 11.6233 2 10.5 2C9.37937 2 8.40284 2.33227 7.73093 2.82051ZM16.25 5.18182V4.45455C16.25 3.10347 15.4942 1.96646 14.4476 1.20466C13.3998 0.441919 12.001 0 10.5 0C9.00219 0 7.60373 0.440683 6.55525 1.20256C5.50788 1.96362 4.75 3.10071 4.75 4.45455V5.18182H0V21H21V5.18182H16.25ZM14.25 7.18182V7.90909C14.25 8.46138 14.6977 8.90909 15.25 8.90909C15.8023 8.90909 16.25 8.46138 16.25 7.90909V7.18182H19V19H2V7.18182H4.75V7.90909C4.75 8.46138 5.19772 8.90909 5.75 8.90909C6.30228 8.90909 6.75 8.46138 6.75 7.90909V7.18182H14.25Z"/>
<path d="M2 7H19V18.9883H2V7Z"/>
<path d="M4.74512 7H6.74512V8C6.74512 8.55228 6.2974 9 5.74512 9C5.19283 9 4.74512 8.55228 4.74512 8V7Z" fill="white"/>
<path d="M14.2575 7H16.2575V8C16.2575 8.55228 15.8098 9 15.2575 9C14.7052 9 14.2575 8.55228 14.2575 8V7Z" fill="white"/>
</svg>
