<svg viewBox="0 0 10 10" xmlns="http://www.w3.org/2000/svg">
<path fill-rule="evenodd" clip-rule="evenodd" d="M1.60553 0.545842C1.31263 0.252949 0.837758 0.252949 0.544865 0.545842C0.251972 0.838735 0.251972 1.31361 0.544865 1.6065L3.93915 5.00079L0.544865 8.39507C0.251972 8.68797 0.251972 9.16284 0.544865 9.45573C0.837758 9.74863 1.31263 9.74863 1.60553 9.45573L4.99981 6.06145L8.3941 9.45573C8.68699 9.74863 9.16187 9.74863 9.45476 9.45573C9.74765 9.16284 9.74765 8.68797 9.45476 8.39507L6.06047 5.00079L9.45476 1.6065C9.74765 1.31361 9.74765 0.838735 9.45476 0.545842C9.16187 0.252949 8.68699 0.252949 8.3941 0.545842L4.99981 3.94013L1.60553 0.545842Z"/>
</svg>
