<svg viewBox="0 0 22 22" xmlns="http://www.w3.org/2000/svg">
<path fill-rule="evenodd" clip-rule="evenodd" d="M6.39999 1C6.39999 0.44772 6.84771 0 7.39999 0H14.6C15.1523 0 15.6 0.44772 15.6 1C15.6 1.55228 15.1523 2 14.6 2H7.39999C6.84771 2 6.39999 1.55228 6.39999 1ZM0 4.6C0 4.04771 0.44772 3.6 1 3.6H21C21.5523 3.6 22 4.04771 22 4.6C22 5.15228 21.5523 5.6 21 5.6H19.6V17.4C19.6 19.9523 17.5523 22 15 22H6.99999C4.42984 22 2.39999 19.9342 2.39999 17.3V5.6H1C0.44772 5.6 0 5.15228 0 4.6ZM4.39999 5.6V17.3C4.39999 18.8658 5.57015 20 6.99999 20H15C16.4477 20 17.6 18.8477 17.6 17.4V5.6H4.39999ZM8.3 8.2C8.85229 8.2 9.3 8.64772 9.3 9.2V16.5C9.3 17.0523 8.85229 17.5 8.3 17.5C7.74772 17.5 7.3 17.0523 7.3 16.5V9.2C7.3 8.64772 7.74772 8.2 8.3 8.2ZM13.7 8.2C14.2523 8.2 14.7 8.64772 14.7 9.2V16.5C14.7 17.0523 14.2523 17.5 13.7 17.5C13.1477 17.5 12.7 17.0523 12.7 16.5V9.2C12.7 8.64772 13.1477 8.2 13.7 8.2Z"/>
</svg>
