<svg viewBox="0 0 42 42" xmlns="http://www.w3.org/2000/svg">
<path fill-opacity="0" d="M42 20.9998C42 32.5977 32.598 41.9996 21 41.9996C9.40202 41.9996 0 32.5977 0 20.9998C0 9.40194 9.40202 0 21 0C32.598 0 42 9.40194 42 20.9998Z" />
<path fill-rule="evenodd" clip-rule="evenodd" d="M41.9988 21.2249C41.9996 21.1499 42 21.0749 42 20.9998V21.2248C41.9996 21.2248 41.9992 21.2248 41.9988 21.2249ZM21.225 41.9985C21.525 32.6994 21.7501 28.4546 25.05 25.0498C28.4549 21.75 32.6996 21.5098 41.9988 21.2249C41.8789 32.6442 32.6444 41.8786 21.225 41.9985ZM21 41.9996C21.0751 41.9996 21.1501 41.9992 21.225 41.9985C21.225 41.9989 21.225 41.9993 21.225 41.9996H21ZM20.775 41.9985C20.8499 41.9992 20.9249 41.9996 21 41.9996H20.775C20.775 41.9993 20.775 41.9989 20.775 41.9985ZM0.00118087 21.2249C9.30036 21.5248 13.5451 21.75 16.95 25.0498C20.2499 28.4546 20.49 32.6994 20.775 41.9985C9.35556 41.8786 0.121076 32.6442 0.00118087 21.2249ZM0.00118087 21.2249C0.000787257 21.2248 0.000393633 21.2248 0 21.2248V20.9998C0 21.0749 0.000394276 21.1499 0.00118087 21.2249ZM0.00118083 20.7748C0.000394263 20.8497 0 20.9247 0 20.9998V20.7748C0.00039362 20.7748 0.00078723 20.7748 0.00118083 20.7748ZM20.775 0.00118084C20.475 9.30028 20.2499 13.545 16.95 16.9499C13.5451 20.2497 9.30036 20.4898 0.00118083 20.7748C0.121074 9.35549 9.35556 0.121074 20.775 0.00118084ZM21 0C20.9249 0 20.8499 0.000394266 20.775 0.00118084C20.775 0.000787237 20.775 0.000393623 20.775 0H21ZM21.225 0.00118082C21.1501 0.00039426 21.0751 0 21 0H21.225C21.225 0.000393616 21.225 0.000787224 21.225 0.00118082ZM21.225 0.00118082C32.6444 0.121073 41.8789 9.35548 41.9988 20.7748C32.6996 20.4748 28.4549 20.2497 25.05 16.9499C21.7501 13.545 21.51 9.30028 21.225 0.00118082ZM41.9988 20.7748C41.9992 20.7748 41.9996 20.7748 42 20.7748V20.9998C42 20.9247 41.9996 20.8497 41.9988 20.7748Z"/>
</svg>
