<svg viewBox="0 0 20 19" xmlns="http://www.w3.org/2000/svg">
<path fill-rule="evenodd" clip-rule="evenodd" d="M5.5 1.5C3.09548 1.5 1.5 3.28974 1.5 5.53333C1.5 6.71579 1.68295 7.5977 2.22726 8.60376C2.78639 9.63722 3.73317 10.8145 5.30914 12.5655C5.973 13.3031 7.22832 14.5681 8.32703 15.6574C8.87443 16.2001 9.37982 16.6962 9.74839 17.0566C9.84152 17.1476 9.9259 17.23 10 17.3023C10.0741 17.23 10.1585 17.1476 10.2516 17.0566C10.6202 16.6962 11.1256 16.2001 11.673 15.6574C12.7717 14.5681 14.027 13.3031 14.6909 12.5655C16.2668 10.8145 17.2136 9.63722 17.7727 8.60376C18.317 7.5977 18.5 6.71579 18.5 5.53333C18.5 3.28974 16.9045 1.5 14.5 1.5C12.5196 1.5 11.3004 2.80442 10.4287 4.25725L10 4.97183L9.57125 4.25725C8.69955 2.80442 7.48041 1.5 5.5 1.5ZM10 18C9.65193 18.3589 9.65191 18.3589 9.65187 18.3589L9.48911 18.2007C9.38472 18.0991 9.23415 17.9523 9.04927 17.7716C8.67956 17.4101 8.17245 16.9123 7.62297 16.3676C6.52793 15.2819 5.252 13.9969 4.56586 13.2345C2.99183 11.4856 1.96986 10.2295 1.34774 9.07961C0.710797 7.90234 0.5 6.8509 0.5 5.53333C0.5 2.77693 2.50452 0.5 5.5 0.5C7.66298 0.5 9.06045 1.74958 10 3.08213C10.9396 1.74958 12.337 0.5 14.5 0.5C17.4955 0.5 19.5 2.77693 19.5 5.53333C19.5 6.8509 19.2892 7.90234 18.6523 9.07961C18.0301 10.2295 17.0082 11.4856 15.4341 13.2345C14.748 13.9969 13.4721 15.2819 12.377 16.3676C11.8276 16.9123 11.3204 17.4101 10.9507 17.7716C10.7659 17.9523 10.6153 18.0991 10.5109 18.2007L10.3488 18.3583C10.3488 18.3583 10.3481 18.3589 10 18ZM10 18L10.3488 18.3583L10 18.6965L9.65187 18.3589L10 18Z"/>
</svg>
