<svg width="15" height="12" viewBox="0 0 15 12" fill="none" xmlns="http://www.w3.org/2000/svg">
<path fill-rule="evenodd" clip-rule="evenodd" d="M14.2803 1.21967C14.5732 1.51256 14.5732 1.98744 14.2803 2.28033L6.03033 10.5303C5.73744 10.8232 5.26256 10.8232 4.96967 10.5303L1.21967 6.78033C0.926777 6.48744 0.926777 6.01256 1.21967 5.71967C1.51256 5.42678 1.98744 5.42678 2.28033 5.71967L5.5 8.93934L13.2197 1.21967C13.5126 0.926777 13.9874 0.926777 14.2803 1.21967Z" fill="white"/>
<path fill-rule="evenodd" clip-rule="evenodd" d="M12.8661 0.866117C13.3543 0.377961 14.1457 0.377962 14.6339 0.866116L14.2818 1.2182L14.6339 0.866117C15.122 1.35427 15.122 2.14573 14.6339 2.63388L6.38388 10.8839C5.89573 11.372 5.10427 11.372 4.61612 10.8839L0.866117 7.13388C0.377961 6.64573 0.377961 5.85427 0.866116 5.36612C1.35427 4.87796 2.14573 4.87796 2.63388 5.36612L5.5 8.23223L12.8661 0.866117ZM13.9268 1.57322C13.8291 1.47559 13.6709 1.47559 13.5732 1.57322L5.85355 9.29289C5.65829 9.48816 5.34171 9.48816 5.14645 9.29289L1.92678 6.07322C1.82915 5.97559 1.67085 5.97559 1.57322 6.07322C1.47559 6.17085 1.47559 6.32915 1.57322 6.42678L5.32322 10.1768C5.42085 10.2744 5.57915 10.2744 5.67678 10.1768L13.9268 1.92678C14.0244 1.82915 14.0244 1.67085 13.9268 1.57322Z" fill="white"/>
</svg>
