<svg viewBox="0 0 22 27" xmlns="http://www.w3.org/2000/svg">
<path d="M10.6667 13.3333C11.4 13.3333 12.028 13.072 12.5507 12.5493C13.0724 12.0276 13.3333 11.4 13.3333 10.6667C13.3333 9.93333 13.0724 9.30533 12.5507 8.78267C12.028 8.26089 11.4 8 10.6667 8C9.93333 8 9.30578 8.26089 8.784 8.78267C8.26133 9.30533 8 9.93333 8 10.6667C8 11.4 8.26133 12.0276 8.784 12.5493C9.30578 13.072 9.93333 13.3333 10.6667 13.3333ZM10.6667 26.1667C10.4889 26.1667 10.3111 26.1333 10.1333 26.0667C9.95556 26 9.8 25.9111 9.66667 25.8C6.42222 22.9333 4 20.2724 2.4 17.8173C0.8 15.3613 0 13.0667 0 10.9333C0 7.6 1.07244 4.94444 3.21733 2.96667C5.36133 0.988889 7.84444 0 10.6667 0C13.4889 0 15.972 0.988889 18.116 2.96667C20.2609 4.94444 21.3333 7.6 21.3333 10.9333C21.3333 13.0667 20.5333 15.3613 18.9333 17.8173C17.3333 20.2724 14.9111 22.9333 11.6667 25.8C11.5333 25.9111 11.3778 26 11.2 26.0667C11.0222 26.1333 10.8444 26.1667 10.6667 26.1667Z"/>
<path fill-rule="evenodd" clip-rule="evenodd" d="M13.2572 8.07496L13.2584 8.07616C13.9658 8.78482 14.3333 9.66631 14.3333 10.6667C14.3333 11.6671 13.9658 12.5484 13.2578 13.2564C12.5492 13.965 11.6676 14.3333 10.6667 14.3333C9.66599 14.3333 8.78466 13.9651 8.07689 13.2564C7.36822 12.5487 7 11.6673 7 10.6667C7 9.66575 7.36837 8.78409 8.07689 8.07556C8.78489 7.36756 9.66626 7 10.6667 7C11.667 7 12.5485 7.3675 13.2572 8.07496ZM8.784 12.5493C9.30578 13.072 9.93333 13.3333 10.6667 13.3333C11.4 13.3333 12.028 13.072 12.5507 12.5493C13.0724 12.0276 13.3333 11.4 13.3333 10.6667C13.3333 9.93333 13.0724 9.30533 12.5507 8.78267C12.028 8.26089 11.4 8 10.6667 8C9.93333 8 9.30578 8.26089 8.784 8.78267C8.26133 9.30533 8 9.93333 8 10.6667C8 11.4 8.26133 12.0276 8.784 12.5493ZM18.116 2.96667C15.972 0.988889 13.4889 0 10.6667 0C7.84444 0 5.36133 0.988889 3.21733 2.96667C1.07244 4.94444 0 7.6 0 10.9333C0 13.0667 0.8 15.3613 2.4 17.8173C4 20.2724 6.42222 22.9333 9.66667 25.8C9.8 25.9111 9.95556 26 10.1333 26.0667C10.3111 26.1333 10.4889 26.1667 10.6667 26.1667C10.8444 26.1667 11.0222 26.1333 11.2 26.0667C11.3778 26 11.5333 25.9111 11.6667 25.8C14.9111 22.9333 17.3333 20.2724 18.9333 17.8173C20.5333 15.3613 21.3333 13.0667 21.3333 10.9333C21.3333 7.6 20.2609 4.94444 18.116 2.96667ZM11.0184 25.0383C14.2172 22.2105 16.5642 19.621 18.0955 17.2713C19.628 14.919 20.3333 12.8129 20.3333 10.9333C20.3333 7.83547 19.3475 5.4625 17.4381 3.70183L17.438 3.70169C15.4718 1.88798 13.2285 1 10.6667 1C8.10487 1 5.86152 1.88798 3.89537 3.70169L3.89522 3.70183C1.98579 5.4625 1 7.83547 1 10.9333C1 12.8129 1.70537 14.919 3.23779 17.2713M11.0184 25.0383C10.9796 25.0692 10.9259 25.1014 10.8489 25.1303C10.7757 25.1578 10.7166 25.1667 10.6667 25.1667C10.6168 25.1667 10.5577 25.1578 10.4845 25.1303C10.4074 25.1014 10.3537 25.0692 10.3149 25.0383C7.11617 22.2106 4.76919 19.6211 3.23788 17.2715"/>
</svg>
