<svg viewBox="0 0 17 22" xmlns="http://www.w3.org/2000/svg">
<path fill-rule="evenodd" clip-rule="evenodd" d="M8.89777 16.9477C10.4481 16.1482 16 12.9075 16 7.5C16 3.35786 12.6421 0 8.5 0C4.35786 0 1 3.35786 1 7.5C1 12.9075 6.55194 16.1482 8.10223 16.9477C8.3554 17.0782 8.6446 17.0782 8.89777 16.9477ZM8.49977 10.7141C10.275 10.7141 11.7141 9.27497 11.7141 7.49977C11.7141 5.72457 10.275 4.28548 8.49977 4.28548C6.72457 4.28548 5.28548 5.72457 5.28548 7.49977C5.28548 9.27497 6.72457 10.7141 8.49977 10.7141Z"/>
<path fill-rule="evenodd" clip-rule="evenodd" d="M14.1922 14.9392C14.5214 14.4957 15.1478 14.4031 15.5912 14.7323C16.3825 15.3197 17 16.1363 17 17.1424C17 18.1484 16.3826 18.9651 15.5912 19.5525C14.7912 20.1464 13.7076 20.5955 12.4902 20.8967C11.2627 21.2005 9.88788 21.3566 8.5 21.3566C7.11212 21.3566 5.73734 21.2005 4.50981 20.8967C3.29237 20.5955 2.20885 20.1464 1.40877 19.5525C0.61745 18.9651 2.38419e-07 18.1484 0 17.1424C-2.38419e-07 16.1363 0.617449 15.3197 1.40877 14.7323C1.85223 14.4031 2.47858 14.4957 2.80776 14.9392C3.13695 15.3826 3.04431 16.009 2.60085 16.3382C2.07564 16.728 2 17.02 2 17.1424C2 17.2647 2.07564 17.5567 2.60085 17.9466C3.1173 18.3299 3.92734 18.6923 4.99019 18.9553C6.04295 19.2158 7.25483 19.3566 8.5 19.3566C9.74517 19.3566 10.957 19.2158 12.0098 18.9553C13.0727 18.6923 13.8827 18.3299 14.3992 17.9465C14.9244 17.5567 15 17.2647 15 17.1424C15 17.02 14.9244 16.728 14.3992 16.3382C13.9557 16.009 13.8631 15.3826 14.1922 14.9392Z"/>
</svg>
