<svg viewBox="0 0 42 42" xmlns="http://www.w3.org/2000/svg">
<path d="M41.9995 20.9998C41.9995 32.5977 32.5976 41.9996 20.9998 41.9996C9.40192 41.9996 0 32.5977 0 20.9998C0 9.40194 9.40192 0 20.9998 0C32.5976 0 41.9995 9.40194 41.9995 20.9998Z" fill-opacity="0"/>
<path fill-rule="evenodd" clip-rule="evenodd" d="M20.9998 41.9996C32.5976 41.9996 41.9995 32.5977 41.9995 20.9998C41.9995 9.40194 32.5976 0 20.9998 0C9.40192 0 0 9.40194 0 20.9998C0 32.5977 9.40192 41.9996 20.9998 41.9996ZM26.2109 21.6999C27.6809 20.5659 28.7869 21.2379 29.1789 22.0359C29.8789 23.4359 29.0949 24.1219 27.3169 25.2558C25.8049 26.2218 23.7469 26.5998 22.417 26.7258L23.5229 27.8598L27.6949 32.0318C28.3389 32.6758 28.3389 33.6978 27.6949 34.2998L27.5129 34.5238C26.8689 35.1538 25.8469 35.1538 25.2169 34.5238L25.2163 34.5231C24.1523 33.4592 22.6266 31.9335 21.017 30.3518L16.859 34.5238C16.229 35.1538 15.193 35.1538 14.563 34.5238L14.367 34.2998C13.7371 33.6978 13.7371 32.6758 14.367 32.0318C15.3957 30.9894 16.8946 29.5036 18.4558 27.9562L18.553 27.8598L19.673 26.7398C18.329 26.5998 16.243 26.2358 14.717 25.2558C12.9391 24.1219 12.1551 23.4359 12.8551 22.0359C13.2471 21.2379 14.353 20.5659 15.823 21.6999C17.825 23.2959 21.017 23.2959 21.017 23.2959C21.017 23.2959 24.2089 23.2959 26.2109 21.6999ZM24.5169 14.0839C24.5169 12.166 22.9489 10.598 21.017 10.598C19.085 10.598 17.517 12.166 17.517 14.0839C17.517 16.0159 19.085 17.5699 21.017 17.5699C22.9489 17.5699 24.5169 16.0159 24.5169 14.0839ZM28.1009 14.0839C28.1009 18.0039 24.9369 21.1679 21.017 21.1679C17.097 21.1679 13.933 18.0039 13.933 14.0839C13.933 12.2052 14.6794 10.4033 16.0079 9.07484C17.3364 7.74634 19.1382 7 21.017 7C22.8957 7 24.6976 7.74634 26.0261 9.07484C27.3546 10.4033 28.1009 12.2052 28.1009 14.0839Z"/>
</svg>
