<svg viewBox="0 0 12 18" xmlns="http://www.w3.org/2000/svg">
<path d="M10.8584 9.61602C10.625 9.14102 9.96671 8.74102 9.09171 9.41602C7.90004 10.366 6.00004 10.366 6.00004 10.366C6.00004 10.366 4.10004 10.366 2.90838 9.41602C2.03338 8.74102 1.37504 9.14102 1.14171 9.61602C0.725042 10.4493 1.19171 10.8577 2.25004 11.5327C3.15838 12.116 4.40004 12.3327 5.20004 12.416L4.53338 13.0827C3.58338 14.0243 2.66671 14.9327 2.04171 15.566C1.66671 15.9493 1.66671 16.5577 2.04171 16.916L2.15838 17.0493C2.53338 17.4243 3.15004 17.4243 3.52504 17.0493L6.00004 14.566C6.95838 15.5077 7.86671 16.416 8.50004 17.0493C8.87504 17.4243 9.48338 17.4243 9.86671 17.0493L9.97504 16.916C10.3584 16.5577 10.3584 15.9493 9.97504 15.566L7.49171 13.0827L6.83338 12.4077C7.62504 12.3327 8.85004 12.1077 9.75004 11.5327C10.8084 10.8577 11.275 10.4493 10.8584 9.61602ZM6.00004 2.80768C7.15004 2.80768 8.08338 3.74102 8.08338 4.88268C8.08338 6.03268 7.15004 6.95768 6.00004 6.95768C4.85004 6.95768 3.91671 6.03268 3.91671 4.88268C3.91671 3.74102 4.85004 2.80768 6.00004 2.80768ZM6.00004 9.09935C8.33338 9.09935 10.2167 7.21602 10.2167 4.88268C10.2167 3.76435 9.77245 2.69183 8.98168 1.90105C8.1909 1.11027 7.11837 0.666016 6.00004 0.666016C4.88171 0.666016 3.80919 1.11027 3.01841 1.90105C2.22763 2.69183 1.78338 3.76435 1.78338 4.88268C1.78338 7.21602 3.66671 9.09935 6.00004 9.09935Z"/>
</svg>
