<svg viewBox="0 0 13 12" xmlns="http://www.w3.org/2000/svg">
<path d="M10.0967 11.9969C9.99266 11.9973 9.89006 11.9735 9.79749 11.9275L6.48041 10.2419L3.16334 11.9275C3.05563 11.9824 2.93418 12.007 2.81282 11.9983C2.69145 11.9896 2.57503 11.9481 2.47679 11.8783C2.37854 11.8086 2.30242 11.7136 2.25707 11.604C2.21172 11.4944 2.19896 11.3746 2.22025 11.2583L2.87065 7.7042L0.190979 5.17908C0.107374 5.09811 0.048066 4.99656 0.0194195 4.88535C-0.00922687 4.77413 -0.00613025 4.65744 0.0283771 4.54781C0.0660746 4.43561 0.135419 4.33592 0.22854 4.26004C0.321661 4.18417 0.434831 4.13514 0.555207 4.11854L4.26253 3.59457L5.89505 0.356111C5.94831 0.24938 6.03146 0.159368 6.13499 0.0963861C6.23852 0.0334043 6.35823 0 6.48041 0C6.6026 0 6.72231 0.0334043 6.82584 0.0963861C6.92936 0.159368 7.01252 0.24938 7.06578 0.356111L8.71781 3.58826L12.4251 4.11222C12.5455 4.12883 12.6587 4.17785 12.7518 4.25373C12.8449 4.32961 12.9143 4.4293 12.952 4.54149C12.9865 4.65113 12.9896 4.76782 12.9609 4.87903C12.9323 4.99025 12.873 5.09179 12.7894 5.17277L10.1097 7.69789L10.7601 11.252C10.7833 11.3703 10.7712 11.4927 10.7251 11.6045C10.679 11.7164 10.6008 11.8131 10.4999 11.8833C10.3822 11.9634 10.2403 12.0033 10.0967 11.9969Z"/>
</svg>
