<svg viewBox="0 0 42 42" xmlns="http://www.w3.org/2000/svg">
<path d="M41.9998 20.9998C41.9998 32.5977 32.5978 41.9996 20.9999 41.9996C9.40197 41.9996 0 32.5977 0 20.9998C0 9.40194 9.40197 0 20.9999 0C32.5978 0 41.9998 9.40194 41.9998 20.9998Z" fill-opacity="0"/>
<path d="M20.9999 0C9.40795 0 0 9.40792 0 20.9998C0 32.5917 9.40795 41.9996 20.9999 41.9996C32.5918 41.9996 41.9998 32.5917 41.9998 20.9998C41.9998 9.40792 32.5918 0 20.9999 0ZM30.7438 14.2799C30.4288 17.5979 29.0639 25.6618 28.3709 29.3788C28.0769 30.9537 27.4889 31.4787 26.9429 31.5417C25.7249 31.6467 24.8009 30.7437 23.6249 29.9668C21.7769 28.7488 20.7269 27.9928 18.9419 26.8168C16.8629 25.4518 18.2069 24.6958 19.4039 23.4778C19.7189 23.1628 25.0949 18.2698 25.1999 17.8289C25.2145 17.7621 25.2125 17.6927 25.1942 17.6268C25.1759 17.561 25.1418 17.5006 25.0949 17.4509C24.9689 17.3459 24.8009 17.3879 24.6539 17.4089C24.4649 17.4509 21.5249 19.4038 15.7919 23.2678C14.9519 23.8348 14.1959 24.1288 13.5239 24.1078C12.7679 24.0868 11.3399 23.6878 10.2689 23.3308C8.94596 22.9108 7.91696 22.6798 8.00096 21.9448C8.04296 21.5668 8.56796 21.1888 9.55495 20.7898C15.6869 18.1228 19.7609 16.3589 21.7979 15.5189C27.6359 13.0829 28.8329 12.6629 29.6309 12.6629C29.7989 12.6629 30.1979 12.7049 30.4499 12.9149C30.6598 13.0829 30.7228 13.3139 30.7438 13.4819C30.7228 13.6079 30.7648 13.9859 30.7438 14.2799Z"/>
</svg>
