<svg viewBox="0 0 15 19" xmlns="http://www.w3.org/2000/svg">
<path d="M7.49951 7.60013C8.24119 7.60013 8.96621 7.37726 9.5829 6.9597C10.1996 6.54214 10.6802 5.94866 10.9641 5.25428C11.2479 4.55991 11.3221 3.79585 11.1775 3.05871C11.0328 2.32157 10.6756 1.64446 10.1512 1.11301C9.62671 0.581566 8.95853 0.219645 8.2311 0.0730188C7.50367 -0.0736074 6.74967 0.00164649 6.06445 0.289264C5.37923 0.576882 4.79356 1.06395 4.3815 1.68886C3.96945 2.31378 3.74951 3.04848 3.74951 3.80006C3.74951 4.8079 4.1446 5.77446 4.84786 6.48711C5.55112 7.19976 6.50495 7.60013 7.49951 7.60013Z"/>
<path fill-rule="evenodd" clip-rule="evenodd" d="M7.49951 6.60013C8.04043 6.60013 8.57032 6.43765 9.02223 6.13166C9.47431 5.82556 9.82864 5.38908 10.0384 4.87592C10.2482 4.36263 10.3033 3.79708 10.1962 3.25132C10.0891 2.70563 9.82499 2.20618 9.43938 1.81542C9.05391 1.4248 8.56441 1.16032 8.03351 1.0533C7.50269 0.946308 6.95234 1.0011 6.45148 1.21133C5.95048 1.42162 5.52011 1.77866 5.21635 2.23934C4.91249 2.70017 4.74951 3.24334 4.74951 3.80006C4.74951 4.54693 5.04242 5.26059 5.55964 5.78471C6.07642 6.30839 6.77448 6.60013 7.49951 6.60013ZM9.5829 6.9597C8.96621 7.37726 8.24119 7.60013 7.49951 7.60013C6.50495 7.60013 5.55112 7.19976 4.84786 6.48711C4.1446 5.77446 3.74951 4.8079 3.74951 3.80006C3.74951 3.04848 3.96945 2.31378 4.3815 1.68886C4.79356 1.06395 5.37923 0.576882 6.06445 0.289264C6.74967 0.00164649 7.50367 -0.0736074 8.2311 0.0730188C8.95853 0.219645 9.62671 0.581566 10.1512 1.11301C10.6756 1.64446 11.0328 2.32157 11.1775 3.05871C11.3221 3.79585 11.2479 4.55991 10.9641 5.25428C10.6802 5.94866 10.1996 6.54214 9.5829 6.9597Z"/>
<path d="M13.9286 18.9994C14.2127 18.9994 14.4853 18.8868 14.6862 18.6863C14.8871 18.4859 15 18.214 15 17.9306C15 15.9464 14.2098 14.0435 12.8033 12.6405C11.3968 11.2374 9.48912 10.4492 7.5 10.4492C5.51088 10.4492 3.60322 11.2374 2.1967 12.6405C0.790176 14.0435 2.96403e-08 15.9464 0 17.9306C0 18.214 0.112883 18.4859 0.313814 18.6863C0.514746 18.8868 0.787268 18.9994 1.07143 18.9994H13.9286Z"/>
<path fill-rule="evenodd" clip-rule="evenodd" d="M13.9286 17.9994C13.9483 17.9994 13.9668 17.9915 13.98 17.9783C13.9931 17.9653 14 17.948 14 17.9306C14 16.2124 13.3158 14.5641 12.0971 13.3484C10.8783 12.1327 9.22471 11.4492 7.5 11.4492C5.77529 11.4492 4.12172 12.1327 2.90293 13.3484C1.68421 14.5641 1 16.2124 1 17.9306C1 17.948 1.00692 17.9653 1.02004 17.9783C1.03325 17.9915 1.05168 17.9994 1.07143 17.9994H13.9286ZM14.6862 18.6863C14.4853 18.8868 14.2127 18.9994 13.9286 18.9994H1.07143C0.787268 18.9994 0.514746 18.8868 0.313814 18.6863C0.112883 18.4859 0 18.214 0 17.9306C0 15.9464 0.790176 14.0435 2.1967 12.6405C3.60322 11.2374 5.51088 10.4492 7.5 10.4492C9.48912 10.4492 11.3968 11.2374 12.8033 12.6405C14.2098 14.0435 15 15.9464 15 17.9306C15 18.214 14.8871 18.4859 14.6862 18.6863Z"/>
</svg>
