<svg viewBox="0 0 42 42" xmlns="http://www.w3.org/2000/svg">
<path d="M41.9998 20.9998C41.9998 32.5977 32.5978 41.9996 20.9999 41.9996C9.40197 41.9996 0 32.5977 0 20.9998C0 9.40194 9.40197 0 20.9999 0C32.5978 0 41.9998 9.40194 41.9998 20.9998Z" fill-opacity="0"/>
<path d="M20.9999 0C9.40183 0 0 9.4018 0 20.9998C0 32.5979 9.40183 41.9996 20.9999 41.9996C32.598 41.9996 41.9998 32.5979 41.9998 20.9998C41.9998 9.4018 32.598 0 20.9999 0ZM29.0761 23.6926C29.0761 23.6926 30.9333 25.5257 31.3905 26.3767C31.4036 26.3942 31.4102 26.4117 31.4145 26.4204C31.6005 26.7332 31.6442 26.976 31.5523 27.1576C31.3992 27.4595 30.8742 27.6082 30.6949 27.6213H27.4136C27.1861 27.6213 26.7092 27.5623 26.1317 27.1641C25.6877 26.8535 25.2502 26.3438 24.8236 25.8473C24.1871 25.1079 23.6358 24.4692 23.0802 24.4692C23.0096 24.469 22.9395 24.4801 22.8724 24.502C22.4524 24.6376 21.9143 25.237 21.9143 26.8338C21.9143 27.3326 21.5205 27.6191 21.2427 27.6191H19.7399C19.228 27.6191 16.5615 27.4398 14.199 24.9482C11.3071 21.8967 8.70402 15.7761 8.68214 15.7192C8.51808 15.3233 8.85714 15.1111 9.22683 15.1111H12.5409C12.9827 15.1111 13.1271 15.3802 13.2277 15.6186C13.3459 15.8964 13.779 17.0011 14.4899 18.2436C15.6427 20.2692 16.3493 21.0917 16.9159 21.0917C17.0221 21.0904 17.1264 21.0634 17.2199 21.0129C17.9593 20.6017 17.8215 17.9658 17.7887 17.4189C17.7887 17.3161 17.7865 16.2399 17.408 15.7236C17.1368 15.3496 16.6752 15.2074 16.3952 15.1549C16.5086 14.9985 16.6579 14.8717 16.8305 14.7852C17.338 14.5314 18.2524 14.4943 19.1602 14.4943H19.6655C20.6499 14.5074 20.9036 14.5708 21.2602 14.6605C21.9821 14.8333 21.9974 15.2992 21.934 16.8939C21.9143 17.3467 21.8946 17.8586 21.8946 18.4623C21.8946 18.5936 21.888 18.7336 21.888 18.8823C21.8661 19.6939 21.8399 20.6148 22.413 20.9933C22.4878 21.0401 22.5742 21.0651 22.6624 21.0654C22.8615 21.0654 23.4608 21.0654 25.0839 18.2808C25.5845 17.3845 26.0195 16.4531 26.3855 15.4939C26.4183 15.4371 26.5146 15.2621 26.6283 15.1942C26.7123 15.1515 26.8053 15.1297 26.8996 15.1308H30.7955C31.2198 15.1308 31.5108 15.1942 31.5655 15.3583C31.6617 15.6186 31.548 16.4127 29.7695 18.8211L28.9755 19.8689C27.3633 21.982 27.3633 22.0892 29.0761 23.6926Z"/>
</svg>
