<svg viewBox="0 0 18 11" xmlns="http://www.w3.org/2000/svg">
<path d="M16.9192 10.317H15.0183C14.2992 10.317 14.0825 9.73446 12.7933 8.44446C11.6667 7.35863 11.1908 7.22363 10.9058 7.22363C10.5117 7.22363 10.4042 7.33196 10.4042 7.87446V9.58446C10.4042 10.047 10.2542 10.3178 9.04583 10.3178C7.87358 10.239 6.7368 9.88292 5.72914 9.27876C4.72148 8.6746 3.87177 7.83969 3.25 6.8428C1.77366 5.00532 0.746423 2.8487 0.25 0.544464C0.25 0.259464 0.358333 0.00113067 0.901667 0.00113067H2.80167C3.29 0.00113067 3.46583 0.218631 3.6575 0.721131C4.58 3.43613 6.15417 5.7978 6.79333 5.7978C7.03833 5.7978 7.145 5.68946 7.145 5.07863V2.28196C7.06417 1.00613 6.38667 0.898631 6.38667 0.436964C6.39524 0.315165 6.45095 0.201504 6.54198 0.120125C6.63301 0.0387455 6.75217 -0.00394167 6.87417 0.00113067H9.86083C10.2692 0.00113067 10.4042 0.204464 10.4042 0.692797V4.4678C10.4042 4.8753 10.5792 5.0103 10.7025 5.0103C10.9475 5.0103 11.1358 4.8753 11.585 4.42696C12.5478 3.25279 13.3344 1.9446 13.92 0.543631C13.9799 0.375425 14.0933 0.231443 14.2427 0.133645C14.3921 0.0358471 14.5694 -0.0103979 14.7475 0.00196394H16.6483C17.2183 0.00196394 17.3392 0.286964 17.2183 0.693631C16.527 2.24231 15.6715 3.71238 14.6667 5.07863C14.4617 5.39113 14.38 5.55363 14.6667 5.9203C14.855 6.2053 15.5217 6.76196 15.9692 7.29113C16.6208 7.94113 17.1617 8.6928 17.5708 9.51613C17.7342 10.0461 17.4617 10.317 16.9192 10.317Z"/>
</svg>
