<svg width="382" height="36" viewBox="0 0 382 36" fill="none" xmlns="http://www.w3.org/2000/svg">
<path d="M4.848 31.208C4.656 31.816 4.656 32.344 4.848 32.792C5.04 33.208 5.312 33.576 5.664 33.896C6.048 34.248 6.528 34.536 7.104 34.76V35H0V34.76C0.064 34.76 0.256 34.696 0.576 34.568C0.928 34.408 1.312 34.184 1.728 33.896C2.144 33.608 2.56 33.24 2.976 32.792C3.392 32.344 3.696 31.816 3.888 31.208L12.912 5C13.104 4.328 13.056 3.784 12.768 3.368C12.48 2.92 12.112 2.568 11.664 2.312C11.248 2.056 10.832 1.88 10.416 1.784C10 1.688 9.76 1.64 9.696 1.64V1.4H16.08L26.352 31.208C26.544 31.816 26.848 32.344 27.264 32.792C27.68 33.24 28.096 33.608 28.512 33.896C28.928 34.184 29.296 34.408 29.616 34.568C29.968 34.696 30.176 34.76 30.24 34.76V35H23.136V34.76C23.52 34.536 23.84 34.248 24.096 33.896C24.32 33.576 24.48 33.208 24.576 32.792C24.704 32.344 24.656 31.816 24.432 31.208L21.072 21.416H8.208L4.848 31.208ZM14.688 2.792H14.592L8.448 20.696H20.832L14.688 2.792ZM36.6683 34.28H44.9243C47.0043 34.28 48.9403 33.848 50.7323 32.984C52.5243 32.088 54.0603 30.904 55.3403 29.432C56.6523 27.96 57.6763 26.264 58.4123 24.344C59.1483 22.392 59.5163 20.344 59.5163 18.2C59.5163 16.056 59.1483 14.024 58.4123 12.104C57.6763 10.152 56.6523 8.44 55.3403 6.968C54.0603 5.496 52.5243 4.328 50.7323 3.464C48.9403 2.568 47.0043 2.12 44.9243 2.12H36.6683V34.28ZM44.9243 1.4C47.2923 1.4 49.4683 1.8 51.4523 2.6C53.4683 3.4 55.2123 4.536 56.6843 6.008C58.1883 7.48 59.3563 9.256 60.1883 11.336C61.0203 13.384 61.4363 15.672 61.4363 18.2C61.4363 20.728 61.0203 23.032 60.1883 25.112C59.3563 27.16 58.1883 28.92 56.6843 30.392C55.2123 31.864 53.4683 33 51.4523 33.8C49.4683 34.6 47.2923 35 44.9243 35H32.1562V34.76C32.2203 34.76 32.3803 34.696 32.6363 34.568C32.9243 34.408 33.2283 34.184 33.5483 33.896C33.8683 33.608 34.1403 33.24 34.3643 32.792C34.6203 32.344 34.7483 31.816 34.7483 31.208V5.192C34.7483 4.584 34.6203 4.056 34.3643 3.608C34.1403 3.16 33.8683 2.792 33.5483 2.504C33.2283 2.216 32.9243 2.008 32.6363 1.88C32.3803 1.72 32.2203 1.64 32.1562 1.64V1.4H44.9243ZM77.775 0.919998C79.983 0.919998 81.967 1.352 83.727 2.216C85.519 3.048 87.039 4.232 88.287 5.768C89.535 7.304 90.495 9.128 91.167 11.24C91.839 13.352 92.175 15.672 92.175 18.2C92.175 20.728 91.839 23.048 91.167 25.16C90.495 27.272 89.535 29.096 88.287 30.632C87.039 32.168 85.519 33.368 83.727 34.232C81.967 35.064 79.983 35.48 77.775 35.48C75.567 35.48 73.567 35.064 71.775 34.232C70.015 33.368 68.511 32.168 67.263 30.632C66.015 29.096 65.055 27.272 64.383 25.16C63.711 23.048 63.375 20.728 63.375 18.2C63.375 15.672 63.711 13.352 64.383 11.24C65.055 9.128 66.015 7.304 67.263 5.768C68.511 4.232 70.015 3.048 71.775 2.216C73.567 1.352 75.567 0.919998 77.775 0.919998ZM77.775 34.76C79.759 34.76 81.519 34.312 83.055 33.416C84.623 32.488 85.935 31.256 86.991 29.72C88.047 28.184 88.847 26.424 89.391 24.44C89.967 22.424 90.255 20.344 90.255 18.2C90.255 16.024 89.967 13.944 89.391 11.96C88.847 9.976 88.047 8.216 86.991 6.68C85.935 5.144 84.623 3.928 83.055 3.032C81.519 2.104 79.759 1.64 77.775 1.64C75.791 1.64 74.015 2.104 72.447 3.032C70.911 3.928 69.615 5.144 68.559 6.68C67.503 8.216 66.687 9.976 66.111 11.96C65.567 13.944 65.295 16.024 65.295 18.2C65.295 20.344 65.567 22.424 66.111 24.44C66.687 26.424 67.503 28.184 68.559 29.72C69.615 31.256 70.911 32.488 72.447 33.416C74.015 34.312 75.791 34.76 77.775 34.76ZM97.6526 18.392H101.109C102.037 18.392 103.013 18.376 104.037 18.344C105.061 18.28 106.069 18.168 107.061 18.008C108.085 17.848 109.045 17.608 109.941 17.288C110.869 16.936 111.669 16.472 112.341 15.896C113.045 15.32 113.605 14.6 114.021 13.736C114.437 12.84 114.645 11.768 114.645 10.52C114.645 8.728 114.277 7.288 113.541 6.2C112.837 5.08 111.957 4.216 110.901 3.608C109.877 3 108.805 2.6 107.685 2.408C106.565 2.216 105.589 2.12 104.757 2.12H97.6526V18.392ZM107.781 19.16C108.549 19.544 109.221 20.2 109.797 21.128C110.405 22.024 110.981 23.064 111.525 24.248C112.101 25.4 112.661 26.6 113.205 27.848C113.781 29.064 114.421 30.2 115.125 31.256C115.861 32.28 116.693 33.128 117.621 33.8C118.581 34.44 119.701 34.76 120.981 34.76V35H117.189C116.261 35 115.429 34.616 114.693 33.848C113.957 33.048 113.253 32.056 112.581 30.872C111.941 29.688 111.301 28.424 110.661 27.08C110.053 25.704 109.397 24.424 108.693 23.24C108.021 22.056 107.269 21.08 106.437 20.312C105.637 19.512 104.725 19.112 103.701 19.112H97.6526V31.208C97.6526 31.816 97.7806 32.344 98.0366 32.792C98.3246 33.208 98.6286 33.576 98.9486 33.896C99.3326 34.248 99.7646 34.536 100.245 34.76V35H93.1406V34.76C93.2046 34.76 93.3646 34.696 93.6206 34.568C93.9086 34.408 94.2126 34.184 94.5326 33.896C94.8526 33.608 95.1246 33.24 95.3486 32.792C95.6046 32.344 95.7326 31.816 95.7326 31.208V5.192C95.7326 4.808 95.6526 4.424 95.4926 4.04C95.3326 3.624 95.1246 3.256 94.8686 2.936C94.6446 2.584 94.3726 2.296 94.0526 2.072C93.7326 1.816 93.4286 1.672 93.1406 1.64V1.4H104.757C105.813 1.4 107.013 1.496 108.357 1.688C109.733 1.88 111.029 2.296 112.245 2.936C113.461 3.544 114.485 4.44 115.317 5.624C116.149 6.808 116.565 8.408 116.565 10.424C116.565 11.992 116.293 13.288 115.749 14.312C115.205 15.336 114.485 16.184 113.589 16.856C112.725 17.496 111.733 17.976 110.613 18.296C109.525 18.584 108.405 18.792 107.253 18.92V18.968C107.445 19 107.621 19.064 107.781 19.16ZM127.286 31.208C127.094 31.816 127.094 32.344 127.286 32.792C127.478 33.208 127.75 33.576 128.102 33.896C128.486 34.248 128.966 34.536 129.542 34.76V35H122.438V34.76C122.502 34.76 122.694 34.696 123.014 34.568C123.366 34.408 123.75 34.184 124.166 33.896C124.582 33.608 124.998 33.24 125.414 32.792C125.83 32.344 126.134 31.816 126.326 31.208L135.35 5C135.542 4.328 135.494 3.784 135.206 3.368C134.918 2.92 134.55 2.568 134.102 2.312C133.686 2.056 133.27 1.88 132.854 1.784C132.438 1.688 132.198 1.64 132.134 1.64V1.4H138.518L148.79 31.208C148.982 31.816 149.286 32.344 149.702 32.792C150.118 33.24 150.534 33.608 150.95 33.896C151.366 34.184 151.734 34.408 152.054 34.568C152.406 34.696 152.614 34.76 152.678 34.76V35H145.574V34.76C145.958 34.536 146.278 34.248 146.534 33.896C146.758 33.576 146.918 33.208 147.014 32.792C147.142 32.344 147.094 31.816 146.87 31.208L143.51 21.416H130.646L127.286 31.208ZM137.126 2.792H137.03L130.886 20.696H143.27L137.126 2.792ZM156.717 5.192C156.717 4.808 156.637 4.424 156.477 4.04C156.317 3.656 156.109 3.304 155.853 2.984C155.629 2.632 155.357 2.344 155.037 2.12C154.749 1.864 154.445 1.704 154.125 1.64V1.4H164.109C167.501 1.4 170.205 2.04 172.221 3.32C174.237 4.568 175.245 6.536 175.245 9.224C175.245 9.992 175.133 10.776 174.909 11.576C174.717 12.344 174.365 13.064 173.853 13.736C173.373 14.376 172.717 14.952 171.885 15.464C171.053 15.944 170.013 16.296 168.765 16.52C170.205 16.584 171.549 16.808 172.797 17.192C174.045 17.544 175.117 18.088 176.013 18.824C176.941 19.56 177.661 20.52 178.173 21.704C178.717 22.856 178.989 24.28 178.989 25.976C178.989 27.992 178.541 29.592 177.645 30.776C176.749 31.96 175.629 32.872 174.285 33.512C172.941 34.12 171.501 34.52 169.965 34.712C168.429 34.904 167.021 35 165.741 35H154.125V34.76C154.413 34.696 154.717 34.552 155.037 34.328C155.357 34.104 155.629 33.832 155.853 33.512C156.109 33.16 156.317 32.792 156.477 32.408C156.637 31.992 156.717 31.592 156.717 31.208V5.192ZM158.637 2.12V16.328C158.573 16.328 158.861 16.328 159.501 16.328C160.141 16.328 160.861 16.328 161.661 16.328C162.461 16.328 163.197 16.328 163.869 16.328C164.573 16.296 164.925 16.28 164.925 16.28C167.613 16.12 169.677 15.464 171.117 14.312C172.589 13.16 173.325 11.464 173.325 9.224C173.325 6.984 172.525 5.24 170.925 3.992C169.325 2.744 166.893 2.12 163.629 2.12H158.637ZM165.741 34.28C166.797 34.28 167.981 34.184 169.293 33.992C170.605 33.768 171.837 33.368 172.989 32.792C174.141 32.184 175.101 31.336 175.869 30.248C176.669 29.128 177.069 27.672 177.069 25.88C177.069 24.472 176.861 23.288 176.445 22.328C176.029 21.368 175.469 20.568 174.765 19.928C174.093 19.288 173.293 18.792 172.365 18.44C171.469 18.088 170.509 17.816 169.485 17.624C168.493 17.432 167.469 17.304 166.413 17.24C165.389 17.176 164.397 17.112 163.437 17.048H158.637V34.28H165.741ZM181.561 5.192C181.561 4.584 181.433 4.056 181.177 3.608C180.953 3.16 180.681 2.792 180.361 2.504C180.041 2.216 179.737 2.008 179.449 1.88C179.193 1.72 179.033 1.64 178.969 1.64V1.4H186.073V1.64C185.593 1.864 185.161 2.152 184.777 2.504C184.457 2.792 184.153 3.16 183.865 3.608C183.609 4.056 183.481 4.584 183.481 5.192V34.28H199.177C200.009 34.28 200.665 33.992 201.145 33.416C201.625 32.84 201.977 32.184 202.201 31.448C202.457 30.712 202.601 30.024 202.633 29.384C202.697 28.712 202.729 28.28 202.729 28.088H202.969V35H178.969V34.76C179.033 34.76 179.193 34.696 179.449 34.568C179.737 34.408 180.041 34.184 180.361 33.896C180.681 33.608 180.953 33.24 181.177 32.792C181.433 32.344 181.561 31.816 181.561 31.208V5.192ZM204.891 35V34.76C204.955 34.76 205.115 34.696 205.371 34.568C205.659 34.408 205.963 34.184 206.283 33.896C206.603 33.608 206.875 33.24 207.099 32.792C207.355 32.344 207.483 31.816 207.483 31.208V5.192C207.483 4.584 207.355 4.056 207.099 3.608C206.875 3.16 206.603 2.792 206.283 2.504C205.963 2.216 205.659 2.008 205.371 1.88C205.115 1.72 204.955 1.64 204.891 1.64V1.4H228.411V8.312H228.171C228.171 8.12 228.139 7.704 228.075 7.064C228.043 6.392 227.899 5.688 227.643 4.952C227.419 4.216 227.067 3.56 226.587 2.984C226.107 2.408 225.451 2.12 224.619 2.12H209.403V17.336H218.091C218.827 17.336 219.419 17.176 219.867 16.856C220.347 16.504 220.715 16.12 220.971 15.704C221.259 15.256 221.483 14.728 221.643 14.12H221.883V21.272H221.643C221.643 21.208 221.595 21.016 221.499 20.696C221.403 20.344 221.211 19.976 220.923 19.592C220.667 19.208 220.315 18.856 219.867 18.536C219.419 18.216 218.827 18.056 218.091 18.056H209.403V34.28H225.099C225.931 34.28 226.587 33.992 227.067 33.416C227.547 32.84 227.899 32.184 228.123 31.448C228.379 30.712 228.523 30.024 228.555 29.384C228.619 28.712 228.651 28.28 228.651 28.088H228.891V35H204.891ZM273.051 1.4L259.227 35.24H258.507L272.331 1.4H273.051ZM244.779 31.208C244.779 31.816 244.939 32.344 245.259 32.792C245.611 33.208 245.995 33.576 246.411 33.896C246.859 34.248 247.387 34.536 247.995 34.76V35H240.891V34.76C240.955 34.76 241.147 34.696 241.467 34.568C241.819 34.408 242.187 34.184 242.571 33.896C242.955 33.608 243.291 33.24 243.579 32.792C243.899 32.344 244.059 31.816 244.059 31.208H244.779ZM244.779 5.192V31.208H244.059V5.192H244.779ZM244.059 5.192C244.059 4.584 243.899 4.056 243.579 3.608C243.291 3.16 242.955 2.792 242.571 2.504C242.187 2.216 241.819 2.008 241.467 1.88C241.147 1.72 240.955 1.64 240.891 1.64V1.4H244.779V5.192H244.059ZM258.507 35.24L244.011 1.4H246.171L259.611 32.792L258.507 35.24ZM272.331 5.192V1.4H276.843V1.64C276.363 1.864 275.931 2.152 275.547 2.504C275.227 2.792 274.923 3.16 274.635 3.608C274.379 4.056 274.251 4.584 274.251 5.192H272.331ZM272.331 5.192H274.251V31.208H272.331V5.192ZM274.251 31.208C274.251 31.816 274.379 32.344 274.635 32.792C274.923 33.208 275.227 33.576 275.547 33.896C275.931 34.248 276.363 34.536 276.843 34.76V35H269.739V34.76C270.219 34.536 270.651 34.248 271.035 33.896C271.387 33.576 271.691 33.208 271.947 32.792C272.203 32.344 272.331 31.816 272.331 31.208H274.251ZM279.703 35V34.76C279.767 34.76 279.927 34.696 280.183 34.568C280.471 34.408 280.775 34.184 281.095 33.896C281.415 33.608 281.687 33.24 281.911 32.792C282.167 32.344 282.295 31.816 282.295 31.208V5.192C282.295 4.584 282.167 4.056 281.911 3.608C281.687 3.16 281.415 2.792 281.095 2.504C280.775 2.216 280.471 2.008 280.183 1.88C279.927 1.72 279.767 1.64 279.703 1.64V1.4H303.223V8.312H302.983C302.983 8.12 302.951 7.704 302.887 7.064C302.855 6.392 302.711 5.688 302.455 4.952C302.231 4.216 301.879 3.56 301.399 2.984C300.919 2.408 300.263 2.12 299.431 2.12H284.215V17.336H292.903C293.639 17.336 294.231 17.176 294.679 16.856C295.159 16.504 295.527 16.12 295.783 15.704C296.071 15.256 296.295 14.728 296.455 14.12H296.695V21.272H296.455C296.455 21.208 296.407 21.016 296.311 20.696C296.215 20.344 296.023 19.976 295.735 19.592C295.479 19.208 295.127 18.856 294.679 18.536C294.231 18.216 293.639 18.056 292.903 18.056H284.215V34.28H299.911C300.743 34.28 301.399 33.992 301.879 33.416C302.359 32.84 302.711 32.184 302.935 31.448C303.191 30.712 303.335 30.024 303.367 29.384C303.431 28.712 303.463 28.28 303.463 28.088H303.703V35H279.703ZM308.686 5.192C308.686 4.808 308.606 4.424 308.446 4.04C308.286 3.656 308.078 3.304 307.822 2.984C307.598 2.632 307.326 2.344 307.006 2.12C306.718 1.864 306.414 1.704 306.094 1.64V1.4H316.078C319.47 1.4 322.174 2.04 324.19 3.32C326.206 4.568 327.214 6.536 327.214 9.224C327.214 9.992 327.102 10.776 326.878 11.576C326.686 12.344 326.334 13.064 325.822 13.736C325.342 14.376 324.686 14.952 323.854 15.464C323.022 15.944 321.982 16.296 320.734 16.52C322.174 16.584 323.518 16.808 324.766 17.192C326.014 17.544 327.086 18.088 327.982 18.824C328.91 19.56 329.63 20.52 330.142 21.704C330.686 22.856 330.958 24.28 330.958 25.976C330.958 27.992 330.51 29.592 329.614 30.776C328.718 31.96 327.598 32.872 326.254 33.512C324.91 34.12 323.47 34.52 321.934 34.712C320.398 34.904 318.99 35 317.71 35H306.094V34.76C306.382 34.696 306.686 34.552 307.006 34.328C307.326 34.104 307.598 33.832 307.822 33.512C308.078 33.16 308.286 32.792 308.446 32.408C308.606 31.992 308.686 31.592 308.686 31.208V5.192ZM310.606 2.12V16.328C310.542 16.328 310.83 16.328 311.47 16.328C312.11 16.328 312.83 16.328 313.63 16.328C314.43 16.328 315.166 16.328 315.838 16.328C316.542 16.296 316.894 16.28 316.894 16.28C319.582 16.12 321.646 15.464 323.086 14.312C324.558 13.16 325.294 11.464 325.294 9.224C325.294 6.984 324.494 5.24 322.894 3.992C321.294 2.744 318.862 2.12 315.598 2.12H310.606ZM317.71 34.28C318.766 34.28 319.95 34.184 321.262 33.992C322.574 33.768 323.806 33.368 324.958 32.792C326.11 32.184 327.07 31.336 327.838 30.248C328.638 29.128 329.038 27.672 329.038 25.88C329.038 24.472 328.83 23.288 328.414 22.328C327.998 21.368 327.438 20.568 326.734 19.928C326.062 19.288 325.262 18.792 324.334 18.44C323.438 18.088 322.478 17.816 321.454 17.624C320.462 17.432 319.438 17.304 318.382 17.24C317.358 17.176 316.366 17.112 315.406 17.048H310.606V34.28H317.71ZM331.875 35V34.76C331.939 34.76 332.099 34.696 332.355 34.568C332.643 34.408 332.947 34.184 333.267 33.896C333.587 33.608 333.859 33.24 334.083 32.792C334.339 32.344 334.467 31.816 334.467 31.208V5.192C334.467 4.584 334.339 4.056 334.083 3.608C333.859 3.16 333.587 2.792 333.267 2.504C332.947 2.216 332.643 2.008 332.355 1.88C332.099 1.72 331.939 1.64 331.875 1.64V1.4H355.395V8.312H355.155C355.155 8.12 355.123 7.704 355.059 7.064C355.027 6.392 354.883 5.688 354.627 4.952C354.403 4.216 354.051 3.56 353.571 2.984C353.091 2.408 352.435 2.12 351.603 2.12H336.387V17.336H345.075C345.811 17.336 346.403 17.176 346.851 16.856C347.331 16.504 347.699 16.12 347.955 15.704C348.243 15.256 348.467 14.728 348.627 14.12H348.867V21.272H348.627C348.627 21.208 348.579 21.016 348.483 20.696C348.387 20.344 348.195 19.976 347.907 19.592C347.651 19.208 347.299 18.856 346.851 18.536C346.403 18.216 345.811 18.056 345.075 18.056H336.387V34.28H352.083C352.915 34.28 353.571 33.992 354.051 33.416C354.531 32.84 354.883 32.184 355.107 31.448C355.363 30.712 355.507 30.024 355.539 29.384C355.603 28.712 355.635 28.28 355.635 28.088H355.875V35H331.875ZM360.389 5.192C360.389 4.584 360.261 4.056 360.005 3.608C359.781 3.16 359.509 2.792 359.189 2.504C358.869 2.216 358.565 2.008 358.277 1.88C358.021 1.72 357.861 1.64 357.797 1.64V1.4H364.901V1.64C364.421 1.864 363.989 2.152 363.605 2.504C363.285 2.792 362.981 3.16 362.693 3.608C362.437 4.056 362.309 4.584 362.309 5.192V34.28H378.005C378.837 34.28 379.493 33.992 379.973 33.416C380.453 32.84 380.805 32.184 381.029 31.448C381.285 30.712 381.429 30.024 381.461 29.384C381.525 28.712 381.557 28.28 381.557 28.088H381.797V35H357.797V34.76C357.861 34.76 358.021 34.696 358.277 34.568C358.565 34.408 358.869 34.184 359.189 33.896C359.509 33.608 359.781 33.24 360.005 32.792C360.261 32.344 360.389 31.816 360.389 31.208V5.192Z" fill="#222222"/>
</svg>
