<svg width="229" height="89" viewBox="0 0 229 89" fill="none" xmlns="http://www.w3.org/2000/svg">
<path d="M4.848 31.208C4.656 31.816 4.656 32.344 4.848 32.792C5.04 33.208 5.312 33.576 5.664 33.896C6.048 34.248 6.528 34.536 7.104 34.76V35H0V34.76C0.064 34.76 0.256 34.696 0.576 34.568C0.928 34.408 1.312 34.184 1.728 33.896C2.144 33.608 2.56 33.24 2.976 32.792C3.392 32.344 3.696 31.816 3.888 31.208L12.912 5C13.104 4.328 13.056 3.784 12.768 3.368C12.48 2.92 12.112 2.568 11.664 2.312C11.248 2.056 10.832 1.88 10.416 1.784C10 1.688 9.76 1.64 9.696 1.64V1.4H16.08L26.352 31.208C26.544 31.816 26.848 32.344 27.264 32.792C27.68 33.24 28.096 33.608 28.512 33.896C28.928 34.184 29.296 34.408 29.616 34.568C29.968 34.696 30.176 34.76 30.24 34.76V35H23.136V34.76C23.52 34.536 23.84 34.248 24.096 33.896C24.32 33.576 24.48 33.208 24.576 32.792C24.704 32.344 24.656 31.816 24.432 31.208L21.072 21.416H8.208L4.848 31.208ZM14.688 2.792H14.592L8.448 20.696H20.832L14.688 2.792ZM36.6683 34.28H44.9243C47.0043 34.28 48.9403 33.848 50.7323 32.984C52.5243 32.088 54.0603 30.904 55.3403 29.432C56.6523 27.96 57.6763 26.264 58.4123 24.344C59.1483 22.392 59.5163 20.344 59.5163 18.2C59.5163 16.056 59.1483 14.024 58.4123 12.104C57.6763 10.152 56.6523 8.44 55.3403 6.968C54.0603 5.496 52.5243 4.328 50.7323 3.464C48.9403 2.568 47.0043 2.12 44.9243 2.12H36.6683V34.28ZM44.9243 1.4C47.2923 1.4 49.4683 1.8 51.4523 2.6C53.4683 3.4 55.2123 4.536 56.6843 6.008C58.1883 7.48 59.3563 9.256 60.1883 11.336C61.0203 13.384 61.4363 15.672 61.4363 18.2C61.4363 20.728 61.0203 23.032 60.1883 25.112C59.3563 27.16 58.1883 28.92 56.6843 30.392C55.2123 31.864 53.4683 33 51.4523 33.8C49.4683 34.6 47.2923 35 44.9243 35H32.1562V34.76C32.2203 34.76 32.3803 34.696 32.6363 34.568C32.9243 34.408 33.2283 34.184 33.5483 33.896C33.8683 33.608 34.1403 33.24 34.3643 32.792C34.6203 32.344 34.7483 31.816 34.7483 31.208V5.192C34.7483 4.584 34.6203 4.056 34.3643 3.608C34.1403 3.16 33.8683 2.792 33.5483 2.504C33.2283 2.216 32.9243 2.008 32.6363 1.88C32.3803 1.72 32.2203 1.64 32.1562 1.64V1.4H44.9243ZM77.775 0.919998C79.983 0.919998 81.967 1.352 83.727 2.216C85.519 3.048 87.039 4.232 88.287 5.768C89.535 7.304 90.495 9.128 91.167 11.24C91.839 13.352 92.175 15.672 92.175 18.2C92.175 20.728 91.839 23.048 91.167 25.16C90.495 27.272 89.535 29.096 88.287 30.632C87.039 32.168 85.519 33.368 83.727 34.232C81.967 35.064 79.983 35.48 77.775 35.48C75.567 35.48 73.567 35.064 71.775 34.232C70.015 33.368 68.511 32.168 67.263 30.632C66.015 29.096 65.055 27.272 64.383 25.16C63.711 23.048 63.375 20.728 63.375 18.2C63.375 15.672 63.711 13.352 64.383 11.24C65.055 9.128 66.015 7.304 67.263 5.768C68.511 4.232 70.015 3.048 71.775 2.216C73.567 1.352 75.567 0.919998 77.775 0.919998ZM77.775 34.76C79.759 34.76 81.519 34.312 83.055 33.416C84.623 32.488 85.935 31.256 86.991 29.72C88.047 28.184 88.847 26.424 89.391 24.44C89.967 22.424 90.255 20.344 90.255 18.2C90.255 16.024 89.967 13.944 89.391 11.96C88.847 9.976 88.047 8.216 86.991 6.68C85.935 5.144 84.623 3.928 83.055 3.032C81.519 2.104 79.759 1.64 77.775 1.64C75.791 1.64 74.015 2.104 72.447 3.032C70.911 3.928 69.615 5.144 68.559 6.68C67.503 8.216 66.687 9.976 66.111 11.96C65.567 13.944 65.295 16.024 65.295 18.2C65.295 20.344 65.567 22.424 66.111 24.44C66.687 26.424 67.503 28.184 68.559 29.72C69.615 31.256 70.911 32.488 72.447 33.416C74.015 34.312 75.791 34.76 77.775 34.76ZM97.6526 18.392H101.109C102.037 18.392 103.013 18.376 104.037 18.344C105.061 18.28 106.069 18.168 107.061 18.008C108.085 17.848 109.045 17.608 109.941 17.288C110.869 16.936 111.669 16.472 112.341 15.896C113.045 15.32 113.605 14.6 114.021 13.736C114.437 12.84 114.645 11.768 114.645 10.52C114.645 8.728 114.277 7.288 113.541 6.2C112.837 5.08 111.957 4.216 110.901 3.608C109.877 3 108.805 2.6 107.685 2.408C106.565 2.216 105.589 2.12 104.757 2.12H97.6526V18.392ZM107.781 19.16C108.549 19.544 109.221 20.2 109.797 21.128C110.405 22.024 110.981 23.064 111.525 24.248C112.101 25.4 112.661 26.6 113.205 27.848C113.781 29.064 114.421 30.2 115.125 31.256C115.861 32.28 116.693 33.128 117.621 33.8C118.581 34.44 119.701 34.76 120.981 34.76V35H117.189C116.261 35 115.429 34.616 114.693 33.848C113.957 33.048 113.253 32.056 112.581 30.872C111.941 29.688 111.301 28.424 110.661 27.08C110.053 25.704 109.397 24.424 108.693 23.24C108.021 22.056 107.269 21.08 106.437 20.312C105.637 19.512 104.725 19.112 103.701 19.112H97.6526V31.208C97.6526 31.816 97.7806 32.344 98.0366 32.792C98.3246 33.208 98.6286 33.576 98.9486 33.896C99.3326 34.248 99.7646 34.536 100.245 34.76V35H93.1406V34.76C93.2046 34.76 93.3646 34.696 93.6206 34.568C93.9086 34.408 94.2126 34.184 94.5326 33.896C94.8526 33.608 95.1246 33.24 95.3486 32.792C95.6046 32.344 95.7326 31.816 95.7326 31.208V5.192C95.7326 4.808 95.6526 4.424 95.4926 4.04C95.3326 3.624 95.1246 3.256 94.8686 2.936C94.6446 2.584 94.3726 2.296 94.0526 2.072C93.7326 1.816 93.4286 1.672 93.1406 1.64V1.4H104.757C105.813 1.4 107.013 1.496 108.357 1.688C109.733 1.88 111.029 2.296 112.245 2.936C113.461 3.544 114.485 4.44 115.317 5.624C116.149 6.808 116.565 8.408 116.565 10.424C116.565 11.992 116.293 13.288 115.749 14.312C115.205 15.336 114.485 16.184 113.589 16.856C112.725 17.496 111.733 17.976 110.613 18.296C109.525 18.584 108.405 18.792 107.253 18.92V18.968C107.445 19 107.621 19.064 107.781 19.16ZM127.286 31.208C127.094 31.816 127.094 32.344 127.286 32.792C127.478 33.208 127.75 33.576 128.102 33.896C128.486 34.248 128.966 34.536 129.542 34.76V35H122.438V34.76C122.502 34.76 122.694 34.696 123.014 34.568C123.366 34.408 123.75 34.184 124.166 33.896C124.582 33.608 124.998 33.24 125.414 32.792C125.83 32.344 126.134 31.816 126.326 31.208L135.35 5C135.542 4.328 135.494 3.784 135.206 3.368C134.918 2.92 134.55 2.568 134.102 2.312C133.686 2.056 133.27 1.88 132.854 1.784C132.438 1.688 132.198 1.64 132.134 1.64V1.4H138.518L148.79 31.208C148.982 31.816 149.286 32.344 149.702 32.792C150.118 33.24 150.534 33.608 150.95 33.896C151.366 34.184 151.734 34.408 152.054 34.568C152.406 34.696 152.614 34.76 152.678 34.76V35H145.574V34.76C145.958 34.536 146.278 34.248 146.534 33.896C146.758 33.576 146.918 33.208 147.014 32.792C147.142 32.344 147.094 31.816 146.87 31.208L143.51 21.416H130.646L127.286 31.208ZM137.126 2.792H137.03L130.886 20.696H143.27L137.126 2.792ZM156.717 5.192C156.717 4.808 156.637 4.424 156.477 4.04C156.317 3.656 156.109 3.304 155.853 2.984C155.629 2.632 155.357 2.344 155.037 2.12C154.749 1.864 154.445 1.704 154.125 1.64V1.4H164.109C167.501 1.4 170.205 2.04 172.221 3.32C174.237 4.568 175.245 6.536 175.245 9.224C175.245 9.992 175.133 10.776 174.909 11.576C174.717 12.344 174.365 13.064 173.853 13.736C173.373 14.376 172.717 14.952 171.885 15.464C171.053 15.944 170.013 16.296 168.765 16.52C170.205 16.584 171.549 16.808 172.797 17.192C174.045 17.544 175.117 18.088 176.013 18.824C176.941 19.56 177.661 20.52 178.173 21.704C178.717 22.856 178.989 24.28 178.989 25.976C178.989 27.992 178.541 29.592 177.645 30.776C176.749 31.96 175.629 32.872 174.285 33.512C172.941 34.12 171.501 34.52 169.965 34.712C168.429 34.904 167.021 35 165.741 35H154.125V34.76C154.413 34.696 154.717 34.552 155.037 34.328C155.357 34.104 155.629 33.832 155.853 33.512C156.109 33.16 156.317 32.792 156.477 32.408C156.637 31.992 156.717 31.592 156.717 31.208V5.192ZM158.637 2.12V16.328C158.573 16.328 158.861 16.328 159.501 16.328C160.141 16.328 160.861 16.328 161.661 16.328C162.461 16.328 163.197 16.328 163.869 16.328C164.573 16.296 164.925 16.28 164.925 16.28C167.613 16.12 169.677 15.464 171.117 14.312C172.589 13.16 173.325 11.464 173.325 9.224C173.325 6.984 172.525 5.24 170.925 3.992C169.325 2.744 166.893 2.12 163.629 2.12H158.637ZM165.741 34.28C166.797 34.28 167.981 34.184 169.293 33.992C170.605 33.768 171.837 33.368 172.989 32.792C174.141 32.184 175.101 31.336 175.869 30.248C176.669 29.128 177.069 27.672 177.069 25.88C177.069 24.472 176.861 23.288 176.445 22.328C176.029 21.368 175.469 20.568 174.765 19.928C174.093 19.288 173.293 18.792 172.365 18.44C171.469 18.088 170.509 17.816 169.485 17.624C168.493 17.432 167.469 17.304 166.413 17.24C165.389 17.176 164.397 17.112 163.437 17.048H158.637V34.28H165.741ZM181.561 5.192C181.561 4.584 181.433 4.056 181.177 3.608C180.953 3.16 180.681 2.792 180.361 2.504C180.041 2.216 179.737 2.008 179.449 1.88C179.193 1.72 179.033 1.64 178.969 1.64V1.4H186.073V1.64C185.593 1.864 185.161 2.152 184.777 2.504C184.457 2.792 184.153 3.16 183.865 3.608C183.609 4.056 183.481 4.584 183.481 5.192V34.28H199.177C200.009 34.28 200.665 33.992 201.145 33.416C201.625 32.84 201.977 32.184 202.201 31.448C202.457 30.712 202.601 30.024 202.633 29.384C202.697 28.712 202.729 28.28 202.729 28.088H202.969V35H178.969V34.76C179.033 34.76 179.193 34.696 179.449 34.568C179.737 34.408 180.041 34.184 180.361 33.896C180.681 33.608 180.953 33.24 181.177 32.792C181.433 32.344 181.561 31.816 181.561 31.208V5.192ZM204.891 35V34.76C204.955 34.76 205.115 34.696 205.371 34.568C205.659 34.408 205.963 34.184 206.283 33.896C206.603 33.608 206.875 33.24 207.099 32.792C207.355 32.344 207.483 31.816 207.483 31.208V5.192C207.483 4.584 207.355 4.056 207.099 3.608C206.875 3.16 206.603 2.792 206.283 2.504C205.963 2.216 205.659 2.008 205.371 1.88C205.115 1.72 204.955 1.64 204.891 1.64V1.4H228.411V8.312H228.171C228.171 8.12 228.139 7.704 228.075 7.064C228.043 6.392 227.899 5.688 227.643 4.952C227.419 4.216 227.067 3.56 226.587 2.984C226.107 2.408 225.451 2.12 224.619 2.12H209.403V17.336H218.091C218.827 17.336 219.419 17.176 219.867 16.856C220.347 16.504 220.715 16.12 220.971 15.704C221.259 15.256 221.483 14.728 221.643 14.12H221.883V21.272H221.643C221.643 21.208 221.595 21.016 221.499 20.696C221.403 20.344 221.211 19.976 220.923 19.592C220.667 19.208 220.315 18.856 219.867 18.536C219.419 18.216 218.827 18.056 218.091 18.056H209.403V34.28H225.099C225.931 34.28 226.587 33.992 227.067 33.416C227.547 32.84 227.899 32.184 228.123 31.448C228.379 30.712 228.523 30.024 228.555 29.384C228.619 28.712 228.651 28.28 228.651 28.088H228.891V35H204.891ZM32.16 54.4L18.336 88.24H17.616L31.44 54.4H32.16ZM3.888 84.208C3.888 84.816 4.048 85.344 4.368 85.792C4.72 86.208 5.104 86.576 5.52 86.896C5.968 87.248 6.496 87.536 7.104 87.76V88H0V87.76C0.064 87.76 0.256 87.696 0.576 87.568C0.928 87.408 1.296 87.184 1.68 86.896C2.064 86.608 2.4 86.24 2.688 85.792C3.008 85.344 3.168 84.816 3.168 84.208H3.888ZM3.888 58.192V84.208H3.168V58.192H3.888ZM3.168 58.192C3.168 57.584 3.008 57.056 2.688 56.608C2.4 56.16 2.064 55.792 1.68 55.504C1.296 55.216 0.928 55.008 0.576 54.88C0.256 54.72 0.064 54.64 0 54.64V54.4H3.888V58.192H3.168ZM17.616 88.24L3.12 54.4H5.28L18.72 85.792L17.616 88.24ZM31.44 58.192V54.4H35.952V54.64C35.472 54.864 35.04 55.152 34.656 55.504C34.336 55.792 34.032 56.16 33.744 56.608C33.488 57.056 33.36 57.584 33.36 58.192H31.44ZM31.44 58.192H33.36V84.208H31.44V58.192ZM33.36 84.208C33.36 84.816 33.488 85.344 33.744 85.792C34.032 86.208 34.336 86.576 34.656 86.896C35.04 87.248 35.472 87.536 35.952 87.76V88H28.848V87.76C29.328 87.536 29.76 87.248 30.144 86.896C30.496 86.576 30.8 86.208 31.056 85.792C31.312 85.344 31.44 84.816 31.44 84.208H33.36ZM38.8125 88V87.76C38.8765 87.76 39.0365 87.696 39.2925 87.568C39.5805 87.408 39.8845 87.184 40.2045 86.896C40.5245 86.608 40.7965 86.24 41.0205 85.792C41.2765 85.344 41.4045 84.816 41.4045 84.208V58.192C41.4045 57.584 41.2765 57.056 41.0205 56.608C40.7965 56.16 40.5245 55.792 40.2045 55.504C39.8845 55.216 39.5805 55.008 39.2925 54.88C39.0365 54.72 38.8765 54.64 38.8125 54.64V54.4H62.3325V61.312H62.0925C62.0925 61.12 62.0605 60.704 61.9965 60.064C61.9645 59.392 61.8205 58.688 61.5645 57.952C61.3405 57.216 60.9885 56.56 60.5085 55.984C60.0285 55.408 59.3725 55.12 58.5405 55.12H43.3245V70.336H52.0125C52.7485 70.336 53.3405 70.176 53.7885 69.856C54.2685 69.504 54.6365 69.12 54.8925 68.704C55.1805 68.256 55.4045 67.728 55.5645 67.12H55.8045V74.272H55.5645C55.5645 74.208 55.5165 74.016 55.4205 73.696C55.3245 73.344 55.1325 72.976 54.8445 72.592C54.5885 72.208 54.2365 71.856 53.7885 71.536C53.3405 71.216 52.7485 71.056 52.0125 71.056H43.3245V87.28H59.0205C59.8525 87.28 60.5085 86.992 60.9885 86.416C61.4685 85.84 61.8205 85.184 62.0445 84.448C62.3005 83.712 62.4445 83.024 62.4765 82.384C62.5405 81.712 62.5725 81.28 62.5725 81.088H62.8125V88H38.8125ZM67.7951 58.192C67.7951 57.808 67.7151 57.424 67.5551 57.04C67.3951 56.656 67.1871 56.304 66.9311 55.984C66.7071 55.632 66.4351 55.344 66.1151 55.12C65.8271 54.864 65.5231 54.704 65.2031 54.64V54.4H75.1871C78.5791 54.4 81.2831 55.04 83.2991 56.32C85.3151 57.568 86.3231 59.536 86.3231 62.224C86.3231 62.992 86.2111 63.776 85.9871 64.576C85.7951 65.344 85.4431 66.064 84.9311 66.736C84.4511 67.376 83.7951 67.952 82.9631 68.464C82.1311 68.944 81.0911 69.296 79.8431 69.52C81.2831 69.584 82.6271 69.808 83.8751 70.192C85.1231 70.544 86.1951 71.088 87.0911 71.824C88.0191 72.56 88.7391 73.52 89.2511 74.704C89.7951 75.856 90.0671 77.28 90.0671 78.976C90.0671 80.992 89.6191 82.592 88.7231 83.776C87.8271 84.96 86.7071 85.872 85.3631 86.512C84.0191 87.12 82.5791 87.52 81.0431 87.712C79.5071 87.904 78.0991 88 76.8191 88H65.2031V87.76C65.4911 87.696 65.7951 87.552 66.1151 87.328C66.4351 87.104 66.7071 86.832 66.9311 86.512C67.1871 86.16 67.3951 85.792 67.5551 85.408C67.7151 84.992 67.7951 84.592 67.7951 84.208V58.192ZM69.7151 55.12V69.328C69.6511 69.328 69.9391 69.328 70.5791 69.328C71.2191 69.328 71.9391 69.328 72.7391 69.328C73.5391 69.328 74.2751 69.328 74.9471 69.328C75.6511 69.296 76.0031 69.28 76.0031 69.28C78.6911 69.12 80.7551 68.464 82.1951 67.312C83.6671 66.16 84.4031 64.464 84.4031 62.224C84.4031 59.984 83.6031 58.24 82.0031 56.992C80.4031 55.744 77.9711 55.12 74.7071 55.12H69.7151ZM76.8191 87.28C77.8751 87.28 79.0591 87.184 80.3711 86.992C81.6831 86.768 82.9151 86.368 84.0671 85.792C85.2191 85.184 86.1791 84.336 86.9471 83.248C87.7471 82.128 88.1471 80.672 88.1471 78.88C88.1471 77.472 87.9391 76.288 87.5231 75.328C87.1071 74.368 86.5471 73.568 85.8431 72.928C85.1711 72.288 84.3711 71.792 83.4431 71.44C82.5471 71.088 81.5871 70.816 80.5631 70.624C79.5711 70.432 78.5471 70.304 77.4911 70.24C76.4671 70.176 75.4751 70.112 74.5151 70.048H69.7151V87.28H76.8191ZM90.9844 88V87.76C91.0484 87.76 91.2084 87.696 91.4644 87.568C91.7524 87.408 92.0564 87.184 92.3764 86.896C92.6964 86.608 92.9684 86.24 93.1924 85.792C93.4484 85.344 93.5764 84.816 93.5764 84.208V58.192C93.5764 57.584 93.4484 57.056 93.1924 56.608C92.9684 56.16 92.6964 55.792 92.3764 55.504C92.0564 55.216 91.7524 55.008 91.4644 54.88C91.2084 54.72 91.0484 54.64 90.9844 54.64V54.4H114.504V61.312H114.264C114.264 61.12 114.232 60.704 114.168 60.064C114.136 59.392 113.992 58.688 113.736 57.952C113.512 57.216 113.16 56.56 112.68 55.984C112.2 55.408 111.544 55.12 110.712 55.12H95.4964V70.336H104.184C104.92 70.336 105.512 70.176 105.96 69.856C106.44 69.504 106.808 69.12 107.064 68.704C107.352 68.256 107.576 67.728 107.736 67.12H107.976V74.272H107.736C107.736 74.208 107.688 74.016 107.592 73.696C107.496 73.344 107.304 72.976 107.016 72.592C106.76 72.208 106.408 71.856 105.96 71.536C105.512 71.216 104.92 71.056 104.184 71.056H95.4964V87.28H111.192C112.024 87.28 112.68 86.992 113.16 86.416C113.64 85.84 113.992 85.184 114.216 84.448C114.472 83.712 114.616 83.024 114.648 82.384C114.712 81.712 114.744 81.28 114.744 81.088H114.984V88H90.9844ZM119.498 58.192C119.498 57.584 119.37 57.056 119.114 56.608C118.89 56.16 118.618 55.792 118.298 55.504C117.978 55.216 117.674 55.008 117.386 54.88C117.13 54.72 116.97 54.64 116.906 54.64V54.4H124.01V54.64C123.53 54.864 123.098 55.152 122.714 55.504C122.394 55.792 122.09 56.16 121.802 56.608C121.546 57.056 121.418 57.584 121.418 58.192V87.28H137.114C137.946 87.28 138.602 86.992 139.082 86.416C139.562 85.84 139.914 85.184 140.138 84.448C140.394 83.712 140.538 83.024 140.57 82.384C140.634 81.712 140.666 81.28 140.666 81.088H140.906V88H116.906V87.76C116.97 87.76 117.13 87.696 117.386 87.568C117.674 87.408 117.978 87.184 118.298 86.896C118.618 86.608 118.89 86.24 119.114 85.792C119.37 85.344 119.498 84.816 119.498 84.208V58.192Z" fill="white"/>
</svg>
